HIERARCHY
ROOT Hips
{
	OFFSET 0.000000 0.000000 0.000000
	CHANNELS 6 Xposition Yposition Zposition Xrotation Yrotation Zrotation
	JOINT LeftUpLeg_virtual
	{
		OFFSET 0.000000 0.000000 0.000000
		CHANNELS 3 Xrotation Yrotation Zrotation
		JOINT LeftUpLeg
		{
			OFFSET 13.026900 -6.336304 -1.092800
			CHANNELS 3 Xrotation Yrotation Zrotation
			JOINT LeftLeg
			{
				OFFSET 0.524474 -46.096886 9.782700
				CHANNELS 3 Xrotation Yrotation Zrotation
				JOINT LeftFoot
				{
					OFFSET -0.524474 -53.427422 -12.948200
					CHANNELS 3 Xrotation Yrotation Zrotation
					JOINT LeftToeBase
					{
						OFFSET 0.192200 -14.009700 16.364100
						CHANNELS 3 Xrotation Yrotation Zrotation
						JOINT LeftToe_End
						{
							OFFSET -1.784700 -0.561700 9.474800
							CHANNELS 3 Xrotation Yrotation Zrotation
							End Site
							{
								OFFSET 0 0 0
							}
						}
					}
				}
			}
		}
	}
	JOINT RightUpLeg_virtual
	{
		OFFSET 0.000000 0.000000 0.000000
		CHANNELS 3 Xrotation Yrotation Zrotation
		JOINT RightUpLeg
		{
			OFFSET -12.883000 -6.336304 -1.092800
			CHANNELS 3 Xrotation Yrotation Zrotation
			JOINT RightLeg
			{
				OFFSET -0.524587 -46.096825 9.782800
				CHANNELS 3 Xrotation Yrotation Zrotation
				JOINT RightFoot
				{
					OFFSET 0.524587 -53.427383 -12.948300
					CHANNELS 3 Xrotation Yrotation Zrotation
					JOINT RightToeBase
					{
						OFFSET -0.192200 -14.009700 16.364100
						CHANNELS 3 Xrotation Yrotation Zrotation
						JOINT RightToe_End
						{
							OFFSET 1.784700 -0.561700 9.474800
							CHANNELS 3 Xrotation Yrotation Zrotation
							End Site
							{
								OFFSET 0 0 0
							}
						}
					}
				}
			}
		}
	}
	JOINT Spine_virtual
	{
		OFFSET 0.000000 0.000000 0.000000
		CHANNELS 3 Xrotation Yrotation Zrotation
		JOINT Spine
		{
			OFFSET 0.072000 7.257294 -0.789700
			CHANNELS 3 Xrotation Yrotation Zrotation
			JOINT Spine1
			{
				OFFSET 0.000000 12.508769 -0.658067
				CHANNELS 3 Xrotation Yrotation Zrotation
				JOINT Spine1_split
				{
					OFFSET 0.000000 12.508769 -0.658067
					CHANNELS 3 Xrotation Yrotation Zrotation
					JOINT Spine2
					{
						OFFSET 0.000000 12.508769 -0.658067
						CHANNELS 3 Xrotation Yrotation Zrotation
						JOINT Neck_virtual
						{
							OFFSET 0.000000 0.000000 0.000000
							CHANNELS 3 Xrotation Yrotation Zrotation
							JOINT Neck
							{
								OFFSET 0.000000 14.033295 7.520400
								CHANNELS 3 Xrotation Yrotation Zrotation
								JOINT Head
								{
									OFFSET 0.000000 8.198502 5.703100
									CHANNELS 3 Xrotation Yrotation Zrotation
									JOINT HeadTop_End
									{
										OFFSET 0.000000 17.760803 13.332701
										CHANNELS 3 Xrotation Yrotation Zrotation
										End Site
										{
											OFFSET 0 0 0
										}
									}
								}
							}
						}
						JOINT LeftShoulder_virtual
						{
							OFFSET 0.000000 0.000000 0.000000
							CHANNELS 3 Xrotation Yrotation Zrotation
							JOINT LeftShoulder
							{
								OFFSET 6.292450 5.785301 -0.669000
								CHANNELS 3 Xrotation Yrotation Zrotation
								JOINT LeftShoulder_split
								{
									OFFSET 6.292450 5.785301 -0.669000
									CHANNELS 3 Xrotation Yrotation Zrotation
									JOINT LeftArm
									{
										OFFSET 13.907140 -6.093903 1.965100
										CHANNELS 3 Xrotation Yrotation Zrotation
										JOINT LeftForeArm
										{
											OFFSET 34.140198 0.000000 0.000000
											CHANNELS 3 Xrotation Yrotation Zrotation
											JOINT LeftHand
											{
												OFFSET 40.960209 0.000000 0.000000
												CHANNELS 3 Xrotation Yrotation Zrotation
												End Site
												{
													OFFSET 0 0 0
												}
											}
										}
									}
								}
							}
						}
						JOINT RightShoulder_virtual
						{
							OFFSET 0.000000 0.000000 0.000000
							CHANNELS 3 Xrotation Yrotation Zrotation
							JOINT RightShoulder
							{
								OFFSET -6.292450 5.785301 -0.669000
								CHANNELS 3 Xrotation Yrotation Zrotation
								JOINT RightShoulder_split
								{
									OFFSET -6.292450 5.785301 -0.669000
									CHANNELS 3 Xrotation Yrotation Zrotation
									JOINT RightArm
									{
										OFFSET -13.907140 -6.093903 1.965100
										CHANNELS 3 Xrotation Yrotation Zrotation
										JOINT RightForeArm
										{
											OFFSET -34.140198 0.000000 0.000000
											CHANNELS 3 Xrotation Yrotation Zrotation
											JOINT RightHand
											{
												OFFSET -40.960209 0.000000 0.000000
												CHANNELS 3 Xrotation Yrotation Zrotation
												End Site
												{
													OFFSET 0 0 0
												}
											}
										}
									}
								}
							}
						}
					}
				}
			}
		}
	}
}
MOTION
Frames: 6
Frame Time: 0.03333333
-0.080800 117.116463 0.857704 0.000000 0.000000 0.000000 1.892515 0.265710 -0.139370 -6.966458 -4.920013 9.752397 13.150029 0.012475 -1.534508 -5.756241 14.530476 -8.781532 -0.022026 0.000003 0.000001 0.000000 0.000000 0.000000 1.892515 0.265710 -0.139370 -6.357989 -4.969812 -8.954901 13.945710 0.251104 -0.295556 -8.082296 -11.440865 7.945513 0.109671 -0.000001 0.000000 0.000000 0.000000 0.000000 1.892515 0.265710 -0.139370 2.071483 0.296305 0.813153 3.430438 -0.015269 0.185037 0.000000 0.000000 0.000000 0.000000 0.000000 0.000000 3.430497 0.005499 0.178976 -3.527214 -0.012947 -0.020364 -2.723220 -0.263049 0.289011 0.000000 0.000000 0.000000 3.430497 0.005499 0.178976 0.742835 8.952361 -13.053721 0.000000 0.000000 0.000000 10.740854 -6.252043 -54.033869 0.000010 -33.005919 0.000012 0.000000 0.000000 0.000000 3.430497 0.005499 0.178976 1.078069 -8.352865 11.371666 0.000000 0.000000 0.000000 3.407871 18.890959 61.317327 0.000012 23.538794 -0.000014 0.000000 0.000000 0.000000 
1.395621 116.732796 0.857792 0.000000 0.000000 0.000000 2.047145 0.064343 -0.420119 -8.431045 -4.225459 9.503728 15.195718 -0.443936 -1.702601 -7.040430 12.417957 -7.930544 -0.007612 0.000002 0.000002 0.000000 0.000000 0.000000 2.047145 0.064343 -0.420119 -6.783060 -4.827911 -9.560863 14.256481 0.480014 -0.277471 -7.909618 -11.496457 8.778723 0.092233 -0.000002 -0.000001 0.000000 0.000000 0.000000 2.047145 0.064343 -0.420119 2.391648 0.035305 1.045939 3.299833 -0.080446 0.171142 0.000000 0.000000 0.000000 0.000000 0.000000 0.000000 3.300177 -0.060740 0.166296 -3.396150 0.002399 -0.020364 -2.286793 -0.182576 0.481419 0.000000 0.000000 0.000000 3.300177 -0.060740 0.166296 0.729731 8.312047 -13.050099 0.000000 0.000000 0.000000 10.192958 -6.689425 -54.453062 0.000000 -32.826548 -0.000014 0.000000 0.000000 0.000000 3.300177 -0.060740 0.166296 1.124654 -7.724699 11.847049 0.000000 0.000000 0.000000 3.010280 18.678489 60.639772 0.000002 22.673023 0.000005 0.000000 0.000000 0.000000 
2.872766 116.346825 0.751312 0.000000 0.000000 0.000000 2.192205 -0.126741 -0.641708 -9.889232 -3.472719 9.268095 17.072992 -0.987623 -1.905208 -8.129226 10.046623 -7.071678 0.002126 0.000003 -0.000002 0.000000 0.000000 0.000000 2.192205 -0.126741 -0.641708 -7.285593 -4.678102 -10.233499 14.588633 0.702725 -0.261169 -7.666116 -11.534467 9.618006 0.047635 -0.000004 -0.000001 0.000000 0.000000 0.000000 2.192205 -0.126741 -0.641708 2.734783 -0.219694 1.204528 3.162680 -0.145143 0.154605 0.000000 0.000000 0.000000 0.000000 0.000000 0.000000 3.163290 -0.126561 0.150961 -3.268993 0.018849 -0.018577 -1.887779 -0.058102 0.630192 0.000000 0.000000 0.000000 3.163290 -0.126561 0.150961 0.717568 7.653007 -13.047680 0.000000 0.000000 0.000000 9.666114 -7.152680 -54.905487 0.000002 -32.583199 -0.000006 0.000000 0.000000 0.000000 3.163290 -0.126561 0.150961 1.162526 -7.068634 12.335785 0.000000 0.000000 0.000000 2.566464 18.497474 59.924207 0.000001 21.753107 -0.000007 0.000000 0.000000 0.000000 
4.342108 115.958939 0.583992 0.000000 0.000000 0.000000 2.331811 -0.314042 -0.805770 -11.298864 -2.747648 9.012564 18.820345 -1.424871 -2.117204 -9.063598 7.605019 -6.237482 0.007077 -0.000003 0.000000 0.000000 0.000000 0.000000 2.331811 -0.314042 -0.805770 -7.822596 -4.495526 -10.961482 14.916310 0.912742 -0.242403 -7.374470 -11.572936 10.459708 -0.029142 -0.000002 -0.000002 0.000000 0.000000 0.000000 2.331811 -0.314042 -0.805770 3.098131 -0.469532 1.292171 3.019495 -0.209397 0.135643 0.000000 0.000000 0.000000 0.000000 0.000000 0.000000 3.020390 -0.191999 0.133191 -3.147350 0.036363 -0.015829 -1.597548 0.081102 0.805939 0.000000 0.000000 0.000000 3.020390 -0.191999 0.133191 0.706286 6.977573 -13.045911 0.000000 0.000000 0.000000 9.162112 -7.642071 -55.387438 0.000010 -32.283968 -0.000014 0.000000 0.000000 0.000000 3.020390 -0.191999 0.133191 1.190443 -6.388124 12.835388 0.000000 0.000000 0.000000 2.074938 18.347864 59.179457 0.000007 20.785814 -0.000020 0.000000 0.000000 0.000000 
5.807739 115.607475 0.404758 0.000000 0.000000 0.000000 2.470135 -0.501462 -0.958670 -12.560405 -2.214062 8.704187 20.379068 -1.636144 -2.300558 -9.825694 5.440320 -5.446141 0.009894 0.000001 0.000002 0.000000 0.000000 0.000000 2.470135 -0.501462 -0.958670 -8.266705 -4.288378 -11.682484 15.061506 1.099770 -0.219750 -6.987644 -11.616714 11.302826 -0.075414 0.000008 0.000002 0.000000 0.000000 0.000000 2.470135 -0.501462 -0.958670 3.475279 -0.715028 1.359859 2.872163 -0.273349 0.115018 0.000000 0.000000 0.000000 0.000000 0.000000 0.000000 2.873326 -0.257173 0.113749 -3.032920 0.054683 -0.010930 -1.496477 0.185064 1.081118 0.000000 0.000000 0.000000 2.873326 -0.257173 0.113749 0.695801 6.292048 -13.043649 0.000000 0.000000 0.000000 8.675603 -8.144785 -55.892353 0.000006 -31.950365 -0.000002 0.000000 0.000000 0.000000 2.873326 -0.257173 0.113749 1.207307 -5.692443 13.339820 0.000000 0.000000 0.000000 1.540417 18.224760 58.423881 0.000004 19.789438 0.000002 0.000000 0.000000 0.000000 
7.266868 115.312500 0.259682 0.000000 0.000000 0.000000 2.611362 -0.694411 -1.119622 -13.599596 -2.059394 8.265209 21.733302 -1.525897 -2.416592 -10.449950 3.954450 -4.708116 0.012710 -0.000001 0.000000 0.000000 0.000000 0.000000 2.611362 -0.694411 -1.119622 -8.562059 -4.166461 -12.373216 14.928227 1.351025 -0.194869 -6.499869 -11.659976 12.121566 -0.141076 -0.000004 -0.000001 0.000000 0.000000 0.000000 2.611362 -0.694411 -1.119622 3.861441 -0.956197 1.430669 2.722171 -0.337109 0.093338 0.000000 0.000000 0.000000 0.000000 0.000000 0.000000 2.723597 -0.322180 0.093248 -2.917186 0.071472 0.002981 -1.617538 0.268029 1.439714 0.000000 0.000000 0.000000 2.723597 -0.322180 0.093248 0.686060 5.601598 -13.039991 0.000000 0.000000 0.000000 8.202254 -8.650301 -56.414750 -0.000001 -31.600174 -0.000006 0.000000 0.000000 0.000000 2.723597 -0.322180 0.093248 1.212585 -4.989271 13.844327 0.000000 0.000000 0.000000 0.968221 18.123576 57.672027 -0.000001 18.779025 -0.000002 0.000000 0.000000 0.000000 
